<mxfile host="app.diagrams.net" modified="2023-10-10T12:30:01.048Z" agent="Mozilla/5.0 (X11; Linux x86_64) AppleWebKit/537.36 (KHTML, like Gecko) Chrome/116.0.0.0 Safari/537.36 Edg/116.0.1938.76" etag="2S0cAZF4X5QtCA7wS_eR" version="22.0.4" type="github">
  <diagram name="第 1 页" id="cCGLdngN6RKNdMTBWwL4">
    <mxGraphModel dx="1305" dy="807" grid="1" gridSize="10" guides="1" tooltips="1" connect="1" arrows="1" fold="1" page="1" pageScale="1" pageWidth="827" pageHeight="1169" math="0" shadow="0">
      <root>
        <mxCell id="0" />
        <mxCell id="1" parent="0" />
      </root>
    </mxGraphModel>
  </diagram>
</mxfile>
